<svg xmlns="http://www.w3.org/2000/svg"  viewBox="0 0 39.155 48">
  <defs>
    <style>
      .cls-1 {
        isolation: isolate;
      }

      .cls-2 {
        fill: #ffc96c;
      }
    </style>
  </defs>
  <g id="image_5_" data-name="image (5)" class="cls-1">
    <g id="组_3327" data-name="组 3327" transform="translate(0 24.598)">
      <path id="路径_115" data-name="路径 115" class="cls-2" d="M-15.588,23.111c5.333,1.258,8.282-1.778,8.282-4.986V0h-5.333V19.859C-12.639,22.635-15.588,23.111-15.588,23.111Zm-1.388-1a2.628,2.628,0,0,0,2.645-2.645,2.656,2.656,0,0,0-2.645-2.645,2.647,2.647,0,0,0-2.6,2.645,2.619,2.619,0,0,0,2.6,2.645ZM5.919,23.372l2.818-7.849L2.493,0H-3.924Zm10.71,0,2.949-7.849L13.2,0H6.916Z" transform="translate(19.578)"/>
    </g>
    <path id="路径_116" data-name="路径 116" class="cls-2" d="M7.722-13.133a.362.362,0,0,0-.457.066c-.131.13-.109.261-.152.413a.813.813,0,0,1-1.523.087v-9.114l1.479-1.5a.38.38,0,0,0-.044-.587.564.564,0,0,0-.457-.044,5.126,5.126,0,0,1-1-.022,11.679,11.679,0,0,1-1.262-.218c-.3-.065-.827-.326-1.066-.043l-1.653,2a.39.39,0,0,0,.3.631h.152v1.958H-.348v-2L1.2-23.618a.39.39,0,0,0-.457-.587,1.054,1.054,0,0,0-.3.239,2.468,2.468,0,0,1-1.588.544,7.275,7.275,0,0,1-1.2-.239c-.37-.087-.761-.152-1.131-.239-.457-.087-.914-.174-1.392-.239a2.4,2.4,0,0,0-2.523.848,2.412,2.412,0,0,0-.261,2.5,2.434,2.434,0,0,0,2.066,1.37,1.324,1.324,0,0,0,.762-.13.385.385,0,0,0,.065-.544c-.2-.2-.457-.2-.631-.37a.832.832,0,0,1-.283-.544A.883.883,0,0,1-5-21.965a.873.873,0,0,1,1.044.587v1.893a1.826,1.826,0,0,0-1.479,1.631.752.752,0,0,0,.087.609.4.4,0,0,0,.479.065,2.712,2.712,0,0,1,.892-.3v.457A1.826,1.826,0,0,0-5.46-15.4a.752.752,0,0,0,.087.609.4.4,0,0,0,.479.066,2.707,2.707,0,0,1,.892-.3v1.262a4.879,4.879,0,0,0-1.414.544,5.169,5.169,0,0,0-1.936,1.936,4.4,4.4,0,0,0-.3.653c-.065.2-.2.413-.087.631.3.565.914-.2,1.2-.37a4.25,4.25,0,0,1,2.98-.7,4.082,4.082,0,0,1,1.5.5,3.769,3.769,0,0,1,.674.479c.174.152.413.283.631.087L.914-11.436c.457-.37-.044-.805-.283-1.022a6.747,6.747,0,0,0-1-.761v-3.067H2.023v3.7A3.086,3.086,0,0,0,5.134-9.783,2.805,2.805,0,0,0,7.9-12.154c.044-.3.131-.8-.174-.979Zm-3.5,2.371a2.111,2.111,0,0,1-1.414-1.827v-4.09a.39.39,0,0,0-.392-.392H-.761a.39.39,0,0,0-.392.392v3.7c0,.326.392.435.609.587a4.7,4.7,0,0,1,.718.587l-1.153.979a5.1,5.1,0,0,0-5.308-.587,4.145,4.145,0,0,1,1.5-1.24A5.043,5.043,0,0,1-3.828-13c.283-.065.652-.087.631-.457v-2c.022-.653-1.022-.37-1.37-.261a1.041,1.041,0,0,1,.957-.565A.388.388,0,0,0-3.2-16.7v-1.2c.022-.652-1.022-.37-1.37-.261a.924.924,0,0,1,.566-.5,2.347,2.347,0,0,1,.413-.065.4.4,0,0,0,.413-.392v-2.306a1.478,1.478,0,0,0-.718-1.066A1.691,1.691,0,0,0-5.221-22.7,1.7,1.7,0,0,0-6.33-20.42a1.626,1.626,0,0,1-.631-2.153,1.666,1.666,0,0,1,.805-.74,1.924,1.924,0,0,1,1.109-.044c.587.087,1.175.2,1.74.326a6.994,6.994,0,0,0,2.828.348l-.631.87a.44.44,0,0,0-.065.239v2.523a.39.39,0,0,0,.392.392H2.393a.39.39,0,0,0,.392-.392v-2.785a.413.413,0,0,0-.174-.326L3.633-23.4a12.356,12.356,0,0,0,2.153.37l-.892.914a.457.457,0,0,0-.109.283V-12.5a1.411,1.411,0,0,0,.653.957,1.651,1.651,0,0,0,1.24.218,2.1,2.1,0,0,1-2.458.565ZM-7.526-14.547a.39.39,0,0,1-.392-.392v-2.85a.39.39,0,0,1,.392-.392.39.39,0,0,1,.392.392v2.85A.39.39,0,0,1-7.526-14.547Zm5.112,5.569a.384.384,0,0,1-.5.218,3.312,3.312,0,0,0-2.458.022.37.37,0,0,1-.152.022.4.4,0,0,1-.37-.239.408.408,0,0,1,.217-.522A4.038,4.038,0,0,1-2.654-9.5a.409.409,0,0,1,.239.522ZM7.309-21.464a.39.39,0,0,1,.392.392v6.134a.39.39,0,0,1-.392.392.39.39,0,0,1-.392-.392v-6.134a.39.39,0,0,1,.392-.392ZM6.656-26.6h-13.6a2.859,2.859,0,0,0-2.849,2.85v13.617A3.143,3.143,0,0,0-6.656-7.02H6.678a3.143,3.143,0,0,0,3.11-3.132V-23.466A3.147,3.147,0,0,0,6.656-26.6ZM9.006-10.153A2.368,2.368,0,0,1,6.656-7.8H-6.656a2.368,2.368,0,0,1-2.349-2.35v-13.6a2.08,2.08,0,0,1,2.066-2.066H6.678a2.367,2.367,0,0,1,2.349,2.349Z" transform="translate(19.578 26.598)"/>
  </g>
</svg>
